<mxfile host="app.diagrams.net" modified="2023-09-21T21:07:26.499Z" agent="Mozilla/5.0 (Macintosh; Intel Mac OS X 10.15; rv:109.0) Gecko/20100101 Firefox/117.0" etag="p76bFd-R_PU6dhypcUVE" version="21.8.0" type="github">
  <diagram name="Page-1" id="e7e014a7-5840-1c2e-5031-d8a46d1fe8dd">
    <mxGraphModel dx="900" dy="547" grid="1" gridSize="10" guides="1" tooltips="1" connect="1" arrows="1" fold="1" page="1" pageScale="1" pageWidth="1169" pageHeight="826" background="none" math="0" shadow="0">
      <root>
        <mxCell id="0" />
        <mxCell id="1" parent="0" />
        <mxCell id="2" value="Customer" style="swimlane;whiteSpace=wrap" parent="1" vertex="1">
          <mxGeometry x="164.5" y="128" width="215.5" height="632" as="geometry" />
        </mxCell>
        <mxCell id="5" value="" style="ellipse;shape=startState;fillColor=#000000;strokeColor=#ff0000;" parent="2" vertex="1">
          <mxGeometry x="100" y="40" width="30" height="30" as="geometry" />
        </mxCell>
        <mxCell id="6" value="" style="edgeStyle=elbowEdgeStyle;elbow=horizontal;verticalAlign=bottom;endArrow=open;endSize=8;strokeColor=#FF0000;endFill=1;rounded=0" parent="2" source="5" target="7" edge="1">
          <mxGeometry x="100" y="40" as="geometry">
            <mxPoint x="115" y="110" as="targetPoint" />
          </mxGeometry>
        </mxCell>
        <mxCell id="7" value="request to view menu" style="" parent="2" vertex="1">
          <mxGeometry x="40" y="92" width="150" height="50" as="geometry" />
        </mxCell>
        <mxCell id="8" value="choose items" style="" parent="2" vertex="1">
          <mxGeometry x="60" y="162" width="110" height="50" as="geometry" />
        </mxCell>
        <mxCell id="10" value="enter amount" style="" parent="2" vertex="1">
          <mxGeometry x="60" y="268" width="110" height="50" as="geometry" />
        </mxCell>
        <mxCell id="oJyvlfm9m3cj54bRfFwy-46" value="order&lt;br&gt;complete?" style="rhombus;whiteSpace=wrap;html=1;" vertex="1" parent="2">
          <mxGeometry y="352" width="80" height="80" as="geometry" />
        </mxCell>
        <mxCell id="oJyvlfm9m3cj54bRfFwy-48" value="" style="endArrow=open;strokeColor=#FF0000;endFill=1;rounded=0;exitX=0.5;exitY=0;exitDx=0;exitDy=0;entryX=0;entryY=0.5;entryDx=0;entryDy=0;" edge="1" parent="2" source="oJyvlfm9m3cj54bRfFwy-46" target="8">
          <mxGeometry relative="1" as="geometry">
            <mxPoint x="125" y="170" as="sourcePoint" />
            <mxPoint x="125" y="202" as="targetPoint" />
            <Array as="points">
              <mxPoint x="40.5" y="187" />
            </Array>
          </mxGeometry>
        </mxCell>
        <mxCell id="oJyvlfm9m3cj54bRfFwy-49" value="No" style="edgeLabel;html=1;align=center;verticalAlign=middle;resizable=0;points=[];" vertex="1" connectable="0" parent="oJyvlfm9m3cj54bRfFwy-48">
          <mxGeometry x="-0.225" y="1" relative="1" as="geometry">
            <mxPoint as="offset" />
          </mxGeometry>
        </mxCell>
        <mxCell id="oJyvlfm9m3cj54bRfFwy-57" value="receieve order" style="" vertex="1" parent="2">
          <mxGeometry x="60" y="472" width="110" height="50" as="geometry" />
        </mxCell>
        <mxCell id="3" value="Ordering System" style="swimlane;whiteSpace=wrap" parent="1" vertex="1">
          <mxGeometry x="380" y="128" width="160" height="632" as="geometry" />
        </mxCell>
        <mxCell id="15" value="display menu items" style="" parent="3" vertex="1">
          <mxGeometry x="20" y="92" width="110" height="50" as="geometry" />
        </mxCell>
        <mxCell id="16" value="check stock" style="" parent="3" vertex="1">
          <mxGeometry x="20" y="202" width="110" height="50" as="geometry" />
        </mxCell>
        <mxCell id="18" value="request quantity" style="" parent="3" vertex="1">
          <mxGeometry x="20" y="267" width="110" height="50" as="geometry" />
        </mxCell>
        <mxCell id="oJyvlfm9m3cj54bRfFwy-45" value="update order" style="" vertex="1" parent="3">
          <mxGeometry x="20" y="332" width="110" height="50" as="geometry" />
        </mxCell>
        <mxCell id="oJyvlfm9m3cj54bRfFwy-51" value="take payment" style="" vertex="1" parent="3">
          <mxGeometry x="20" y="422" width="110" height="50" as="geometry" />
        </mxCell>
        <mxCell id="oJyvlfm9m3cj54bRfFwy-54" value="complete order" style="" vertex="1" parent="3">
          <mxGeometry x="20" y="522" width="110" height="50" as="geometry" />
        </mxCell>
        <mxCell id="oJyvlfm9m3cj54bRfFwy-61" value="" style="ellipse;shape=startState;fillColor=#000000;strokeColor=#ff0000;" vertex="1" parent="3">
          <mxGeometry x="60" y="592" width="30" height="30" as="geometry" />
        </mxCell>
        <mxCell id="oJyvlfm9m3cj54bRfFwy-62" value="" style="edgeStyle=elbowEdgeStyle;elbow=horizontal;verticalAlign=bottom;endArrow=open;endSize=8;strokeColor=#FF0000;endFill=1;rounded=0;entryX=0.5;entryY=0;entryDx=0;entryDy=0;exitX=0.5;exitY=1;exitDx=0;exitDy=0;" edge="1" parent="3" source="oJyvlfm9m3cj54bRfFwy-54" target="oJyvlfm9m3cj54bRfFwy-61">
          <mxGeometry x="-280" y="-88" as="geometry">
            <mxPoint x="-89.5" y="102" as="targetPoint" />
            <mxPoint x="250" y="362" as="sourcePoint" />
          </mxGeometry>
        </mxCell>
        <mxCell id="4" value="Employee" style="swimlane;whiteSpace=wrap" parent="1" vertex="1">
          <mxGeometry x="540" y="128" width="160" height="632" as="geometry" />
        </mxCell>
        <mxCell id="oJyvlfm9m3cj54bRfFwy-42" value="update menu" style="" vertex="1" parent="4">
          <mxGeometry x="35" y="202" width="110" height="50" as="geometry" />
        </mxCell>
        <mxCell id="oJyvlfm9m3cj54bRfFwy-52" value="prepare food" style="" vertex="1" parent="4">
          <mxGeometry x="35" y="422" width="110" height="50" as="geometry" />
        </mxCell>
        <mxCell id="20" value="" style="endArrow=open;strokeColor=#FF0000;endFill=1;rounded=0;entryX=1;entryY=0.5;entryDx=0;entryDy=0;exitX=0;exitY=0.5;exitDx=0;exitDy=0;" parent="1" source="18" target="10" edge="1">
          <mxGeometry relative="1" as="geometry">
            <mxPoint x="410" y="530" as="sourcePoint" />
          </mxGeometry>
        </mxCell>
        <mxCell id="oJyvlfm9m3cj54bRfFwy-41" value="" style="endArrow=open;strokeColor=#FF0000;endFill=1;rounded=0;exitX=1;exitY=0.5;exitDx=0;exitDy=0;entryX=0;entryY=0.5;entryDx=0;entryDy=0;" edge="1" parent="1" source="7" target="15">
          <mxGeometry relative="1" as="geometry">
            <mxPoint x="289.5" y="298" as="sourcePoint" />
            <mxPoint x="289.5" y="358" as="targetPoint" />
          </mxGeometry>
        </mxCell>
        <mxCell id="17" value="" style="endArrow=open;strokeColor=#FF0000;endFill=1;rounded=0;entryX=1;entryY=0.5;entryDx=0;entryDy=0;exitX=0.5;exitY=1;exitDx=0;exitDy=0;" parent="1" source="15" target="8" edge="1">
          <mxGeometry relative="1" as="geometry">
            <Array as="points">
              <mxPoint x="455" y="315" />
            </Array>
          </mxGeometry>
        </mxCell>
        <mxCell id="11" value="" style="endArrow=open;strokeColor=#FF0000;endFill=1;rounded=0;entryX=0;entryY=0.5;entryDx=0;entryDy=0;exitX=0.5;exitY=1;exitDx=0;exitDy=0;" parent="1" source="8" target="16" edge="1">
          <mxGeometry relative="1" as="geometry">
            <mxPoint x="280" y="453" as="targetPoint" />
            <Array as="points">
              <mxPoint x="280" y="355" />
            </Array>
          </mxGeometry>
        </mxCell>
        <mxCell id="19" value="" style="endArrow=open;strokeColor=#FF0000;endFill=1;rounded=0;entryX=0;entryY=0.5;entryDx=0;entryDy=0;" parent="1" source="16" target="oJyvlfm9m3cj54bRfFwy-42" edge="1">
          <mxGeometry relative="1" as="geometry" />
        </mxCell>
        <mxCell id="oJyvlfm9m3cj54bRfFwy-43" value="" style="endArrow=open;strokeColor=#FF0000;endFill=1;rounded=0;entryX=1;entryY=0.5;entryDx=0;entryDy=0;exitX=0.5;exitY=1;exitDx=0;exitDy=0;" edge="1" parent="1" source="oJyvlfm9m3cj54bRfFwy-42" target="18">
          <mxGeometry relative="1" as="geometry">
            <mxPoint x="585" y="415" as="sourcePoint" />
            <mxPoint x="790" y="415" as="targetPoint" />
            <Array as="points">
              <mxPoint x="630" y="420" />
            </Array>
          </mxGeometry>
        </mxCell>
        <mxCell id="oJyvlfm9m3cj54bRfFwy-44" value="" style="endArrow=open;strokeColor=#FF0000;endFill=1;rounded=0;exitX=0.5;exitY=1;exitDx=0;exitDy=0;entryX=0;entryY=0.5;entryDx=0;entryDy=0;" edge="1" parent="1" source="10" target="oJyvlfm9m3cj54bRfFwy-45">
          <mxGeometry relative="1" as="geometry">
            <mxPoint x="440" y="488" as="sourcePoint" />
            <mxPoint x="430" y="530" as="targetPoint" />
            <Array as="points">
              <mxPoint x="280" y="485" />
            </Array>
          </mxGeometry>
        </mxCell>
        <mxCell id="oJyvlfm9m3cj54bRfFwy-47" value="" style="endArrow=open;strokeColor=#FF0000;endFill=1;rounded=0;entryX=1;entryY=0.5;entryDx=0;entryDy=0;exitX=0.5;exitY=1;exitDx=0;exitDy=0;" edge="1" parent="1">
          <mxGeometry relative="1" as="geometry">
            <mxPoint x="455" y="509" as="sourcePoint" />
            <mxPoint x="244.5" y="519" as="targetPoint" />
            <Array as="points">
              <mxPoint x="455" y="529" />
            </Array>
          </mxGeometry>
        </mxCell>
        <mxCell id="oJyvlfm9m3cj54bRfFwy-50" value="Yes" style="endArrow=open;strokeColor=#FF0000;endFill=1;rounded=0;exitX=0.5;exitY=1;exitDx=0;exitDy=0;entryX=0;entryY=0.5;entryDx=0;entryDy=0;" edge="1" parent="1" source="oJyvlfm9m3cj54bRfFwy-46" target="oJyvlfm9m3cj54bRfFwy-51">
          <mxGeometry relative="1" as="geometry">
            <mxPoint x="270" y="630" as="sourcePoint" />
            <mxPoint x="204.5" y="670" as="targetPoint" />
            <Array as="points">
              <mxPoint x="205" y="575" />
              <mxPoint x="260" y="575" />
            </Array>
          </mxGeometry>
        </mxCell>
        <mxCell id="oJyvlfm9m3cj54bRfFwy-53" value="" style="endArrow=open;strokeColor=#FF0000;endFill=1;rounded=0;exitX=1;exitY=0.5;exitDx=0;exitDy=0;entryX=0;entryY=0.5;entryDx=0;entryDy=0;" edge="1" parent="1" source="oJyvlfm9m3cj54bRfFwy-51" target="oJyvlfm9m3cj54bRfFwy-52">
          <mxGeometry relative="1" as="geometry">
            <mxPoint x="570" y="644.5" as="sourcePoint" />
            <mxPoint x="645" y="644.5" as="targetPoint" />
          </mxGeometry>
        </mxCell>
        <mxCell id="oJyvlfm9m3cj54bRfFwy-56" value="" style="endArrow=open;strokeColor=#FF0000;endFill=1;rounded=0;exitX=0.5;exitY=1;exitDx=0;exitDy=0;entryX=1;entryY=0.5;entryDx=0;entryDy=0;" edge="1" parent="1" source="oJyvlfm9m3cj54bRfFwy-52" target="oJyvlfm9m3cj54bRfFwy-57">
          <mxGeometry relative="1" as="geometry">
            <mxPoint x="520" y="655" as="sourcePoint" />
            <mxPoint x="620" y="655" as="targetPoint" />
            <Array as="points">
              <mxPoint x="630" y="630" />
            </Array>
          </mxGeometry>
        </mxCell>
        <mxCell id="oJyvlfm9m3cj54bRfFwy-58" value="" style="endArrow=open;strokeColor=#FF0000;endFill=1;rounded=0;exitX=0.5;exitY=1;exitDx=0;exitDy=0;entryX=0;entryY=0.5;entryDx=0;entryDy=0;" edge="1" parent="1" source="oJyvlfm9m3cj54bRfFwy-57" target="oJyvlfm9m3cj54bRfFwy-54">
          <mxGeometry relative="1" as="geometry">
            <mxPoint x="520" y="660" as="sourcePoint" />
            <mxPoint x="570" y="661" as="targetPoint" />
            <Array as="points">
              <mxPoint x="280" y="675" />
            </Array>
          </mxGeometry>
        </mxCell>
      </root>
    </mxGraphModel>
  </diagram>
</mxfile>
